<?xml version="1.0" encoding="UTF-8"?>
<svg width="416px" height="159px" viewBox="0 0 416 159" version="1.1" xmlns="http://www.w3.org/2000/svg" xmlns:xlink="http://www.w3.org/1999/xlink">
    <!-- Generator: Sketch 52.2 (67145) - http://www.bohemiancoding.com/sketch -->
    <title>lace copy 5</title>
    <desc>Created with Sketch.</desc>
    <g id="Page-1" stroke="none" stroke-width="1" fill="none" fill-rule="evenodd">
        <g id="Artboard-Copy-2" transform="translate(-161.000000, -290.000000)" fill="#FFFFFF">
            <path d="M161,441.823944 L161,295.776456 C161,293.656576 162.65384,291.904838 164.77022,291.783061 L195.758352,290 L195.758352,445.823944 L165,445.823944 C162.790861,445.823944 161,444.033083 161,441.823944 Z M311.315926,331.879799 L333.363196,332.750587 L333.363196,445.823944 L307.407061,445.823944 C306.302491,445.823944 305.407061,444.928513 305.407061,443.823944 L305.407061,434.707746 C294.857576,443.706573 281.143246,448 266.373967,448 C232.879352,448 206.978165,420.268192 206.978165,387.65493 C206.978165,355.041667 232.879352,329.309859 266.373967,328.309859 C281.135795,327.869137 294.857576,333.603286 305.407061,342.602113 L307.271213,334.932017 C307.720967,333.08149 309.413012,331.804641 311.315926,331.879799 Z M291.428993,410.622653 C297.23121,404.535211 300.132318,396.859742 300.132318,388.65493 C300.132318,380.450117 297.23121,372.509977 291.428993,366.687207 C285.890514,360.864437 278.505874,357.68838 270.593761,357.68838 C262.681647,357.68838 255.297007,360.864437 249.494791,366.687207 C243.956311,372.509977 240.791466,380.450117 240.791466,388.65493 C240.791466,396.859742 243.956311,404.535211 249.494791,410.622653 C255.297007,416.445423 262.681647,419.621479 270.593761,419.621479 C278.505874,419.621479 285.890514,416.445423 291.428993,410.622653 Z M446.67283,341.339626 L429.934946,367.216549 C412.792033,348.424883 375.868836,360.335094 375.868836,388.919601 C375.868836,414.328052 410.154662,430.675773 429.934946,411.090093 L446.67283,436.845437 C436.123345,443.991564 421.231621,449 407.253553,449 C372.440253,449 344.220381,422.003521 344.220381,388.390258 C344.220381,355.041667 372.440253,328.045188 407.253553,328.045188 C421.495358,328.045188 436.024858,332.269532 446.67283,341.339626 Z M533.302753,404.985848 C536.802068,399.617969 541.88876,395.174744 550.441423,392.604811 C556.31316,390.840451 564.332326,390.37781 574.49892,391.216886 L574.498921,391.216875 C575.536188,391.302483 576.334426,392.169315 576.334426,393.210109 L576.334426,412.644765 C576.334426,414.757455 574.691421,416.505857 572.582808,416.637046 L560.26129,417.403636 C560.188809,417.459188 560.117563,417.514161 560.047552,417.568557 C552.595824,431.522098 539.34288,442.516717 522.898732,446.934773 C490.800169,455.558707 457.524103,436.276181 448.916022,404.063916 C440.239622,371.595997 459.510477,338.469677 491.60904,329.845743 C523.707603,321.22181 556.915351,340.248682 565.59175,372.716601 C566.548203,376.295742 567.181588,379.687673 567.37379,383.472146 L485.34413,405.511087 C487.965722,409.19087 490.96018,412.22246 494.582253,414.537411 C501.503329,418.980106 509.20141,420.199955 516.589175,418.215081 C523.467438,416.367095 529.525884,411.451275 533.254532,404.969338 L533.302753,404.985848 Z M562.236285,416.627372 L562.276251,416.626092 C562.282862,416.625109 562.289355,416.624182 562.295728,416.623312 C562.281902,416.625201 562.262185,416.626707 562.236285,416.627372 Z M479.642453,386.218355 L532.375806,372.050463 C529.872328,367.790931 526.418165,364.060827 522.149955,361.371457 C515.551947,357.115971 507.599116,355.964566 500.466102,357.880996 C493.078337,359.86587 487.019891,364.78169 483.173129,371.843376 C481.072576,376.243844 479.94123,381.205939 479.642453,386.218355 Z" id="lace-copy-5"></path>
        </g>
    </g>
</svg>